{"title":"Black.Market.S01E03.Iron 720p.WEB-DL.AAC2.0.H.264-Coo7","uid":15372858,"size":706027503,"categoryP":"video","categoryS":"hd___tv_shows","magnet":"?xt=urn:btih:fad530a326086c8fd9b08e9f668f4c9fa5885db8&amp;dn=Black.Market.S01E03.Iron+720p.WEB-DL.AAC2.0.H.264-Coo7&amp;tr=udp%3A%2F%2Ftracker.leechers-paradise.org%3A6969&amp;tr=udp%3A%2F%2Fzer0day.ch%3A1337&amp;tr=udp%3A%2F%2Fopen.demonii.com%3A1337&amp;tr=udp%3A%2F%2Ftracker.coppersurfer.tk%3A6969&amp;tr=udp%3A%2F%2Fexodus.desync.com%3A6969","seeders":1,"leechers":0,"uploader":"Anon_up","files":1,"time":1469162741,"description":"[center][color=green]\r\n\r\n[quote]\r\n\r\nUSE TORRENT\r\nSEED FOR LONG\r\n[/quote]\r\n\r\n[img]http://extraimago.com/images/2016/07/21/Black.Market.S01E03.Iron.Pipeline.720p.WEB-DL.AAC2.0.H.264-Coo7.mkv_thumbs_2016.07.21_14.39.38.jpg [/img]\r\n\r\n[code]Iron Pipeline\r\n\r\nGunrunners move weapons from American states with loose laws to states with stricter ones, in a neverending flow that law enforcement can’t seem to stop.\r\n[/code]\r\n\r\n[spoiler=MediaInfo]\r\nGeneral\r\nUnique ID                      : 253808583651909802388952218084743413231 (0xBEF1C150D7131DBE846F60F91BA57DEF)\r\nComplete name                  : Black.Market.S01E03.Iron.Pipeline.720p.WEB-DL.AAC2.0.H.264-Coo7.mkv\r\nFormat                         : Matroska\r\nFormat version                 : Version 4 / Version 2\r\nFile size                      : 673 MiB\r\nDuration                       : 22 min\r\nOverall bit rate               : 4 182 kb/s\r\nEncoded date                   : UTC 2016-07-20 16:50:52\r\nWriting application            : mkvmerge v8.8.0 ('Wind at my back') 64bit\r\nWriting library                : libebml v1.3.3 + libmatroska v1.4.4\r\n\r\nVideo\r\nID                             : 2\r\nFormat                         : AVC\r\nFormat/Info                    : Advanced Video Codec\r\nFormat profile                 :   \r\nFormat settings, CABAC         : No\r\nFormat settings, ReFrames      : 2 frames\r\nCodec ID                       : V_MPEG4/ISO/AVC\r\nDuration                       : 22 min\r\nBit rate                       : 4 037 kb/s\r\nWidth                          : 1 280 pixels\r\nHeight                         : 716 pixels\r\nDisplay aspect ratio           : 16:9\r\nFrame rate mode                : Constant\r\nFrame rate                     : 23.976 (24000/1001) FPS\r\nColor space                    : YUV\r\nChroma subsampling             : 4:2:0\r\nBit depth                      : 8 bits\r\nScan type                      : Progressive\r\nBits/(Pixel*Frame)             : 0.184\r\nStream size                    : 650 MiB (97%)\r\nLanguage                       : English\r\nDefault                        : Yes\r\nForced                         : No\r\nColor range                    : Limited\r\nColor primaries                : BT.709\r\nTransfer characteristics       : BT.709\r\nMatrix coefficients            : BT.709\r\n\r\nAudio\r\nID                             : 1\r\nFormat                         : AAC\r\nFormat/Info                    : Advanced Audio Codec\r\nFormat profile                 : LC\r\nCodec ID                       : A_AAC\r\nDuration                       : 22 min\r\nBit rate                       : 144 kb/s\r\nChannel(s)                     : 2 channels\r\nChannel positions              : Front: L R\r\nSampling rate                  : 48.0 kHz\r\nFrame rate                     : 46.875 FPS (1024 spf)\r\nCompression mode               : Lossy\r\nStream size                    : 23.0 MiB (3%)\r\nLanguage                       : English\r\nDefault                        : Yes\r\nForced                         : No\r\n\r\nText\r\nID                             : 3\r\nFormat                         : UTF-8\r\nCodec ID                       : S_TEXT/UTF8\r\nCodec ID/Info                  : UTF-8 Plain Text\r\nDuration                       : 22 min\r\nBit rate                       : 99 b/s\r\nCount of elements              : 342\r\nStream size                    : 16.4 KiB (0%)\r\nLanguage                       : English\r\nDefault                        : Yes\r\nForced                         : No\r\n\r\n\r\n[/spoiler]\r\n\r\n[/color]\r\n[/center]","torrent":{"xt":"urn:btih:fad530a326086c8fd9b08e9f668f4c9fa5885db8","amp;dn":"Black.Market.S01E03.Iron+720p.WEB-DL.AAC2.0.H.264-Coo7","amp;tr":["udp%3A%2F%2Ftracker.leechers-paradise.org%3A6969","udp%3A%2F%2Fzer0day.ch%3A1337","udp%3A%2F%2Fopen.demonii.com%3A1337","udp%3A%2F%2Ftracker.coppersurfer.tk%3A6969","udp%3A%2F%2Fexodus.desync.com%3A6969"],"infoHash":"fad530a326086c8fd9b08e9f668f4c9fa5885db8","infoHashBuffer":{"type":"Buffer","data":[250,213,48,163,38,8,108,143,217,176,142,159,102,143,76,159,165,136,93,184]},"announce":[],"urlList":[]}}